<svg xmlns="http://www.w3.org/2000/svg" width="142" height="29" viewBox="0 0 142 29" fill="none">
  <path d="M6.76216 14.5L3.54668 17.7751L0.333984 14.5L3.54668 11.2249L6.76216 14.5ZM14.5577 6.54738L20.0632 12.1627L23.2759 8.88755L14.5577 0L5.83948 8.88755L9.05217 12.1627L14.5577 6.54738ZM25.5714 11.2249L22.3587 14.5L25.5714 17.7751L28.7814 14.5L25.5714 11.2249ZM14.5577 22.4526L9.05217 16.8402L5.83948 20.1124L14.5577 29L23.2759 20.1124L20.0632 16.8402L14.5577 22.4526ZM14.5577 17.7751L17.7704 14.5L14.5577 11.2249L11.345 14.5L14.5577 17.7751ZM48.4633 18.0896V18.0442C48.4633 15.9081 47.3516 14.84 45.5424 14.1374C46.6541 13.4999 47.5934 12.4998 47.5934 10.7064V10.6611C47.5934 8.16227 45.6313 6.54738 42.4436 6.54738H35.2067V22.4526H42.6271C46.1483 22.4526 48.4688 20.9992 48.4688 18.0896H48.4633ZM44.1834 11.2901C44.1834 12.4715 43.2246 12.9729 41.71 12.9729H38.5501V9.61567H41.9378C43.3858 9.61567 44.189 10.205 44.189 11.2504L44.1834 11.2901ZM45.0533 17.6533C45.0533 18.8347 44.1389 19.3787 42.6215 19.3787H38.5501V15.8854H42.5159C44.2779 15.8854 45.0588 16.5455 45.0588 17.6136L45.0533 17.6533ZM55.6752 22.4526V6.54738H52.2318V22.4526H55.6752ZM74.1259 22.4526V6.54738H70.7271V16.3415L63.4179 6.54738H60.2524V22.4526H63.6402V12.3411L71.1939 22.4526H74.1259ZM93.1381 22.4526L86.4404 6.43405H83.2749L76.591 22.4526H80.09L81.5213 18.8857H88.119L89.5447 22.4526H93.1381ZM86.8989 15.7947H82.7413L84.8146 10.6384L86.8989 15.7947ZM109.499 22.4526V6.54738H106.1V16.3415L98.7881 6.54738H95.6254V22.4526H99.0104V12.3411L106.567 22.4526H109.499ZM127.216 19.8858L125.034 17.6363C123.809 18.7695 122.717 19.4976 120.932 19.4976C118.259 19.4976 116.408 17.2311 116.408 14.5V14.4547C116.408 11.7292 118.303 9.50234 120.932 9.50234C122.491 9.50234 123.712 10.1823 124.923 11.2957L127.099 8.7289C125.651 7.2755 123.892 6.2754 120.949 6.2754C116.158 6.2754 112.814 9.97831 112.814 14.4915V14.5368C112.814 19.1038 116.224 22.7161 120.816 22.7161C123.82 22.7246 125.601 21.6338 127.205 19.8858H127.216ZM141.862 22.4526V19.3362H133.38V15.9902H140.737V12.8738H133.38V9.661H141.74V6.54455H129.97V22.4498L141.862 22.4526Z" fill="#B6B3EB"/>
</svg>