<svg xmlns="http://www.w3.org/2000/svg" width="21" height="20" viewBox="0 0 21 20" fill="none">
  <path d="M10.334 17C8.94951 17 7.59614 16.5895 6.44499 15.8203C5.29385 15.0511 4.39664 13.9579 3.86683 12.6788C3.33702 11.3997 3.19839 9.99223 3.46849 8.63437C3.73859 7.2765 4.40527 6.02922 5.38424 5.05025C6.36321 4.07129 7.61049 3.4046 8.96835 3.13451C10.3262 2.86441 11.7337 3.00303 13.0128 3.53285C14.2918 4.06266 15.3851 4.95987 16.1543 6.11101C16.9234 7.26215 17.334 8.61553 17.334 10C17.334 11.8565 16.5965 13.637 15.2837 14.9497C13.971 16.2625 12.1905 17 10.334 17ZM10.334 4C9.1473 4 7.98726 4.3519 7.00056 5.01118C6.01387 5.67047 5.24484 6.60754 4.79071 7.7039C4.33658 8.80026 4.21776 10.0067 4.44928 11.1705C4.68079 12.3344 5.25223 13.4035 6.09135 14.2426C6.93046 15.0818 7.99956 15.6532 9.16344 15.8847C10.3273 16.1162 11.5337 15.9974 12.6301 15.5433C13.7264 15.0891 14.6635 14.3201 15.3228 13.3334C15.9821 12.3467 16.334 11.1867 16.334 10C16.334 8.4087 15.7018 6.88258 14.5766 5.75736C13.4514 4.63214 11.9253 4 10.334 4Z" fill="white"/>
  <path d="M11.7297 13L9.33398 10.3913V6H10.1911V10.004L12.334 12.342L11.7297 13Z" fill="white"/>
</svg>