<svg width="45" height="45" viewBox="0 0 45 45" fill="none" xmlns="http://www.w3.org/2000/svg">
<g id="fi-br-euro" clip-path="url(#clip0_355_7107)">
<path id="Vector" d="M36.7514 21.7401C36.5869 23.7339 35.926 25.6548 34.8288 27.3277C33.7317 29.0006 32.2333 30.3722 30.4701 31.3175C28.707 32.2629 26.7353 32.7518 24.7348 32.7399C22.7343 32.7279 20.7686 32.2153 19.0169 31.2489L28.3814 24.7477C28.8171 24.4452 29.1149 23.982 29.2091 23.46C29.3033 22.938 29.1863 22.3999 28.8838 21.9642C28.5813 21.5285 28.1181 21.2308 27.5961 21.1366C27.0741 21.0424 26.536 21.1594 26.1003 21.4619L15.7599 28.6406C15.1685 27.9728 14.6581 27.2375 14.2391 26.4501L24.5795 19.2714C25.0153 18.9689 25.313 18.5057 25.4072 17.9837C25.5014 17.4617 25.3844 16.9236 25.0819 16.4879C24.7794 16.0522 24.3162 15.7545 23.7942 15.6602C23.2722 15.566 22.7341 15.6831 22.2984 15.9856L12.9339 22.4868C12.6408 20.5078 12.8477 18.4869 13.5357 16.6084C14.2238 14.7299 15.3711 13.0535 16.8731 11.7321C18.3751 10.4106 20.184 9.48618 22.1349 9.04302C24.0858 8.59986 26.1165 8.65208 28.042 9.19493C28.5528 9.33843 29.0996 9.27316 29.5622 9.01348C30.0248 8.75381 30.3653 8.321 30.5088 7.81026C30.6523 7.29952 30.5871 6.7527 30.3274 6.29009C30.0677 5.82747 29.6349 5.48696 29.1242 5.34346C26.399 4.57588 23.5188 4.54587 20.7782 5.2565C18.0375 5.96712 15.5348 7.39289 13.526 9.38798C11.5171 11.3831 10.0742 13.8759 9.34471 16.6116C8.61526 19.3472 8.62546 22.2276 9.37429 24.958L8.05997 25.8704C7.62424 26.1729 7.32653 26.6361 7.23233 27.1581C7.13812 27.6801 7.25514 28.2182 7.55763 28.6539C7.86013 29.0896 8.32333 29.3873 8.84533 29.4815C9.36733 29.5758 9.90537 29.4587 10.3411 29.1562L10.9446 28.7373C11.1656 29.1211 11.3921 29.5011 11.6491 29.8713C11.9061 30.2415 12.183 30.5866 12.4653 30.9278L11.8618 31.3468C11.4261 31.6493 11.1284 32.1125 11.0342 32.6345C10.94 33.1565 11.057 33.6945 11.3595 34.1302C11.662 34.566 12.1252 34.8637 12.6472 34.9579C13.1692 35.0521 13.7073 34.9351 14.143 34.6326L15.4573 33.7201C17.7537 35.3761 20.4488 36.3925 23.2668 36.6654C26.0849 36.9382 28.9249 36.4577 31.4963 35.2729C34.0678 34.0882 36.2784 32.2418 37.9022 29.9224C39.526 27.6031 40.5047 24.8941 40.7381 22.0725C40.7822 21.5439 40.6145 21.0193 40.2718 20.6143C39.9292 20.2093 39.4397 19.957 38.911 19.9129C38.6492 19.8911 38.3857 19.9211 38.1355 20.0011C37.8853 20.0811 37.6533 20.2096 37.4528 20.3793C37.0478 20.7219 36.7955 21.2114 36.7514 21.7401Z" fill="white" fill-opacity="0.1"/>
</g>
<defs>
<clipPath id="clip0_355_7107">
<rect width="32" height="32" fill="white" transform="translate(0.333984 18.249) rotate(-34.7699)"/>
</clipPath>
</defs>
</svg>
