<svg xmlns="http://www.w3.org/2000/svg" width="21" height="21" viewBox="0 0 21 21" fill="none">
  <path d="M4.19036 5.16322L4.09023 5.19852V5.30469V11.75C4.09023 15.1981 6.88591 17.9937 10.334 17.9937C13.7821 17.9937 16.5777 15.1981 16.5777 11.75V5.30469V5.19852L16.4776 5.16322L10.3839 3.01478L10.334 2.9972L10.2841 3.01478L4.19036 5.16322ZM2.98398 4.35811L10.334 1.90811L17.684 4.35811V11.75C17.684 15.8097 14.3937 19.1 10.334 19.1C6.27425 19.1 2.98398 15.8097 2.98398 11.75V4.35811Z" fill="white" stroke="#5D55FF" stroke-width="0.3"/>
  <path d="M7.61783 9.88512L7.61807 9.88536L9.66104 11.9283L9.76708 12.0344L9.87314 11.9284L13.7149 8.08851L13.7151 8.08839C13.7628 8.04059 13.8194 8.00266 13.8818 7.97679C13.9442 7.95091 14.0111 7.9376 14.0786 7.9376C14.1462 7.9376 14.213 7.95091 14.2754 7.97679C14.3378 8.00266 14.3945 8.04059 14.4422 8.08839L14.4423 8.08849L14.497 8.14318L14.4971 8.14327C14.5449 8.19099 14.5828 8.24766 14.6087 8.31004L14.7472 8.25257L14.6087 8.31004C14.6345 8.37242 14.6479 8.4393 14.6479 8.50684C14.6479 8.57437 14.6345 8.64125 14.6087 8.70363L14.745 8.76018L14.6087 8.70363C14.5828 8.76602 14.5449 8.82268 14.4971 8.8704L14.497 8.8705L10.1317 13.2357L10.1316 13.2358C10.0839 13.2836 10.0273 13.3216 9.96488 13.3474C9.90249 13.3733 9.83562 13.3866 9.76808 13.3866C9.70054 13.3866 9.63367 13.3733 9.57128 13.3474C9.5089 13.3216 9.45223 13.2836 9.40452 13.2358L9.40442 13.2357L9.3634 13.1947L6.83606 10.6674L6.83582 10.6671C6.78435 10.6159 6.74351 10.555 6.71565 10.4879C6.68778 10.4209 6.67344 10.349 6.67344 10.2764C6.67344 10.2037 6.68778 10.1318 6.71565 10.0648C6.74351 9.99773 6.78435 9.93684 6.83582 9.8856L6.8363 9.88512C6.88753 9.83365 6.94843 9.79282 7.01549 9.76495C7.08254 9.73708 7.15445 9.72274 7.22707 9.72274C7.29968 9.72274 7.37159 9.73708 7.43864 9.76495C7.5057 9.79282 7.5666 9.83365 7.61783 9.88512Z" fill="white" stroke="white" stroke-width="0.3"/>
</svg>