<svg xmlns="http://www.w3.org/2000/svg" width="21" height="20" viewBox="0 0 21 20" fill="none">
  <path d="M5.20317 10.0004V6.62877C5.21319 5.96603 5.35388 5.31177 5.6172 4.70349C5.88051 4.0952 6.26127 3.54485 6.73766 3.08397C7.21405 2.62309 7.7767 2.26073 8.39337 2.01767C9.01005 1.7746 9.66863 1.65559 10.3314 1.66748C10.9941 1.65559 11.6527 1.7746 12.2694 2.01767C12.8861 2.26073 13.4487 2.62309 13.9251 3.08397C14.4015 3.54485 14.7822 4.0952 15.0456 4.70349C15.3089 5.31177 15.4496 5.96603 15.4596 6.62877V10.0004M12.8955 16.7308C13.5755 16.7308 14.2277 16.4607 14.7086 15.9799C15.1894 15.499 15.4596 14.8469 15.4596 14.1669V11.2824M12.8955 16.7308C12.8955 17.1559 12.7266 17.5635 12.4261 17.864C12.1256 18.1645 11.7179 18.3333 11.2929 18.3333H9.36984C8.94481 18.3333 8.5372 18.1645 8.23666 17.864C7.93612 17.5635 7.76728 17.1559 7.76728 16.7308C7.76728 16.3058 7.93612 15.8982 8.23666 15.5977C8.5372 15.2972 8.94481 15.1284 9.36984 15.1284H11.2929C11.7179 15.1284 12.1256 15.2972 12.4261 15.5977C12.7266 15.8982 12.8955 16.3058 12.8955 16.7308ZM3.2801 8.07742H4.56215C4.73216 8.07742 4.89521 8.14495 5.01542 8.26516C5.13564 8.38537 5.20317 8.54841 5.20317 8.71842V12.5644C5.20317 12.7344 5.13564 12.8974 5.01542 13.0176C4.89521 13.1378 4.73216 13.2054 4.56215 13.2054H3.2801C2.94008 13.2054 2.61398 13.0703 2.37355 12.8299C2.13312 12.5895 1.99805 12.2634 1.99805 11.9234V9.35941C1.99805 9.01941 2.13312 8.69333 2.37355 8.45291C2.61398 8.21249 2.94008 8.07742 3.2801 8.07742ZM17.3827 13.2054H16.1006C15.9306 13.2054 15.7676 13.1378 15.6473 13.0176C15.5271 12.8974 15.4596 12.7344 15.4596 12.5644V8.71842C15.4596 8.54841 15.5271 8.38537 15.6473 8.26516C15.7676 8.14495 15.9306 8.07742 16.1006 8.07742H17.3827C17.7227 8.07742 18.0488 8.21249 18.2892 8.45291C18.5296 8.69333 18.6647 9.01941 18.6647 9.35941V11.9234C18.6647 12.2634 18.5296 12.5895 18.2892 12.8299C18.0488 13.0703 17.7227 13.2054 17.3827 13.2054Z" stroke="white" stroke-linecap="round" stroke-linejoin="round"/>
</svg>