<svg xmlns="http://www.w3.org/2000/svg" width="64" height="26" viewBox="0 0 64 26" fill="none">
  <mask id="mask0_355_7114" style="mask-type:luminance" maskUnits="userSpaceOnUse" x="0" y="0" width="64" height="26">
    <path d="M0.0175781 0V5.33555H3.54489V20.5065H0.113617V25.7778H12.388V20.5065H8.86062V5.33555H12.2919V0H0.0175781ZM34.9534 0.0642837V5.33555H38.4807V20.5065H35.0495V25.7778H43.7963V11.1108L49.0085 25.7726L49.1145 25.7752L54.2331 11.1108V25.7778H63.0758V20.5065H59.5484V5.33555H62.9798V0.0642837H53.1218L49.0402 11.8211L44.9069 0.0642837H34.9534Z" fill="white"/>
    <path d="M14.0312 0.0651855V5.33645H17.5586V13.6933H31.1357V12.0909C31.1357 12.0909 32.2715 11.1882 32.6334 10.3316L33.36 8.66956C33.36 8.66956 33.6975 7.73925 33.6975 6.90786L33.5521 5.24581C33.5521 5.24581 33.3241 3.8918 32.9265 3.48906L31.5224 1.82444C31.5224 1.82444 29.7358 0.0651855 27.3694 0.0651855H14.0312ZM22.874 5.33645H28.0443V10.222H22.874V5.33645Z" fill="white"/>
    <path d="M14.0312 25.7778V20.5066H17.5586V12.1497H31.1357V13.7522C31.1357 13.7522 32.2715 14.6548 32.6334 15.5114L33.36 17.1735C33.36 17.1735 33.6975 18.1038 33.6975 18.9352L33.5521 20.5972C33.5521 20.5972 33.3241 21.9512 32.9265 22.354L31.5224 24.0186C31.5224 24.0186 29.7358 25.7778 27.3694 25.7778H14.0312ZM22.874 20.5066H28.0443V15.621H22.874V20.5066Z" fill="white"/>
  </mask>
  <g mask="url(#mask0_355_7114)">
    <path d="M0.0175781 0.943848H64.9681V4.3658H0.0175781M0.0175781 7.78775H61.4998V11.2103H0.0175781V14.6316H61.4998V18.053H0.0175781M0.0175781 21.4756H64.9681V24.8981H0.0175781" fill="#B6B3EB"/>
    <path d="M0.0175781 0.943848H64.9681V4.3658H0.0175781M0.0175781 7.78775H61.4998V11.2103H0.0175781V14.6316H61.4998V18.053H0.0175781M0.0175781 21.4756H64.9681V24.8981H0.0175781" stroke="#B6B3EB" stroke-width="25.2648"/>
  </g>
</svg>