<svg xmlns="http://www.w3.org/2000/svg" width="21" height="20" viewBox="0 0 21 20" fill="none">
  <path d="M12.8828 12.3615L12.8828 12.3614L12.8805 12.3606L8.22255 10.6239C8.06198 10.564 7.892 10.5333 7.72064 10.5333C6.9272 10.5333 6.28398 11.1765 6.28398 11.97V13.8785C6.28398 14.9124 6.97383 15.8192 7.97021 16.0951L11.7465 17.1408C12.1713 17.2584 12.6209 17.2515 13.0419 17.1209L16.5343 16.0372C16.8623 15.9355 17.1037 15.6713 17.1664 15.3905C17.1986 15.2463 17.1881 15.0659 17.0691 14.9168C16.9482 14.7652 16.7652 14.7083 16.584 14.7083H12.1257C11.7093 14.7083 11.2996 14.639 10.9039 14.5071L10.9035 14.5069L9.71149 14.1113C9.43162 14.0184 9.28001 13.7162 9.37282 13.4363C9.46567 13.1563 9.76798 13.0046 10.048 13.0976L11.2395 13.4931L11.2395 13.4931L11.2419 13.4938C11.3018 13.5132 11.3784 13.5254 11.4467 13.5345C11.5212 13.5443 11.6097 13.5531 11.705 13.561C11.896 13.5768 12.1248 13.5899 12.3452 13.6003C12.6878 13.6166 13.0074 13.451 13.1693 13.2151C13.2519 13.0947 13.3131 12.9234 13.2604 12.739C13.2058 12.5485 13.0538 12.4268 12.8828 12.3615ZM14.1303 11.989C14.4225 12.3409 14.7659 12.7476 15.1598 13.0646C15.5555 13.3831 16.0292 13.6333 16.584 13.6333C17.8016 13.6333 18.784 14.6157 18.784 15.8333C18.784 16.1979 18.5471 16.5201 18.1991 16.6289L12.8905 18.2878C12.5783 18.3854 12.2446 18.3908 11.9294 18.3035L7.32095 17.0263C6.79958 16.8818 6.28398 17.2739 6.28398 17.8149C6.28398 17.9356 6.18621 18.0333 6.06559 18.0333H3.58398C2.6451 18.0333 1.88398 17.2722 1.88398 16.3333V11.1667C1.88398 10.2278 2.6451 9.46667 3.58399 9.46667H7.86445C8.06749 9.46667 8.26888 9.50304 8.4591 9.57406L13.2536 11.3642C13.2537 11.3642 13.2537 11.3643 13.2538 11.3643C13.6019 11.4949 13.9013 11.7131 14.1303 11.989ZM2.95065 15.8333C2.95065 16.4593 3.45806 16.9667 4.08398 16.9667C4.70991 16.9667 5.21732 16.4593 5.21732 15.8333V11.6667C5.21732 11.0407 4.70991 10.5333 4.08398 10.5333C3.45806 10.5333 2.95065 11.0407 2.95065 11.6667V15.8333Z" fill="white" stroke="#5D55FF" stroke-width="0.6"/>
  <path d="M18.0507 6.4459V10.8333C18.0507 11.1831 17.7671 11.4667 17.4173 11.4667C17.0675 11.4667 16.784 11.1831 16.784 10.8333V7.29131C16.784 6.57342 16.4337 5.90068 15.8456 5.489L13.6789 3.97233C12.9214 3.44208 11.9132 3.44208 11.1557 3.97233L8.48658 5.84072C8.21337 6.03197 8.05065 6.34449 8.05065 6.67799C8.05065 7.01975 7.76832 7.3 7.42302 7.3C7.07146 7.3 6.78398 7.01468 6.78398 6.66667V6.12452C6.78398 5.74489 6.96732 5.38864 7.27623 5.16798L11.3711 2.24309C11.9969 1.79605 12.8377 1.79605 13.4635 2.24309L17.2969 4.98118C17.7699 5.31906 18.0507 5.86459 18.0507 6.4459ZM11.8007 7.91667C11.8007 8.03633 11.7036 8.13333 11.584 8.13333C11.4643 8.13333 11.3673 8.03633 11.3673 7.91667C11.3673 7.79701 11.4643 7.7 11.584 7.7C11.7036 7.7 11.8007 7.79701 11.8007 7.91667ZM13.4673 7.91667C13.4673 8.03633 13.3703 8.13333 13.2507 8.13333C13.131 8.13333 13.034 8.03633 13.034 7.91667C13.034 7.79701 13.131 7.7 13.2507 7.7C13.3703 7.7 13.4673 7.79701 13.4673 7.91667ZM11.8007 6.25C11.8007 6.36966 11.7036 6.46667 11.584 6.46667C11.4643 6.46667 11.3673 6.36966 11.3673 6.25C11.3673 6.13034 11.4643 6.03333 11.584 6.03333C11.7036 6.03333 11.8007 6.13034 11.8007 6.25ZM13.4673 6.25C13.4673 6.36966 13.3703 6.46667 13.2507 6.46667C13.131 6.46667 13.034 6.36966 13.034 6.25C13.034 6.13034 13.131 6.03333 13.2507 6.03333C13.3703 6.03333 13.4673 6.13034 13.4673 6.25Z" fill="white" stroke="#5D55FF" stroke-width="0.4"/>
</svg>