<svg xmlns="http://www.w3.org/2000/svg" width="21" height="21" viewBox="0 0 21 21" fill="none">
  <path d="M16.4072 3.59344L16.584 3.77022L16.7608 3.59344L17.584 2.77022V16.3333C17.584 17.5786 16.5792 18.5833 15.334 18.5833H5.33398C4.08872 18.5833 3.08398 17.5786 3.08398 16.3333V14.0833H5.33398H5.58398V13.8333V2.77022L6.40721 3.59344L6.58398 3.77022L6.76076 3.59344L7.83398 2.52022L8.90721 3.59344L9.08398 3.77022L9.26076 3.59344L10.334 2.52022L11.4072 3.59344L11.584 3.77022L11.7608 3.59344L12.834 2.52022L13.9072 3.59344L14.084 3.77022L14.2608 3.59344L15.334 2.52022L16.4072 3.59344ZM12.834 17.4167H13.084V17.1667V15.5V15.25H12.834H4.50065H4.25065V15.5V16.3333C4.25065 16.9297 4.73758 17.4167 5.33398 17.4167H12.834ZM6.75065 13.8333V14.0833H7.00065H14.2507V16.3333C14.2507 16.9297 14.7376 17.4167 15.334 17.4167C15.9304 17.4167 16.4173 16.9297 16.4173 16.3333V4.66667V4.41667H16.1673H7.00065H6.75065V4.66667V13.8333ZM8.08398 6.58333H12.584V7.75H8.08398V6.58333ZM13.9173 7.75V6.58333H15.084V7.75H13.9173ZM8.08398 9.08333H12.584V10.25H8.08398V9.08333ZM13.9173 10.25V9.08333H15.084V10.25H13.9173Z" fill="white" stroke="#5D55FF" stroke-width="0.5"/>
</svg>