<svg xmlns="http://www.w3.org/2000/svg" width="21" height="20" viewBox="0 0 21 20" fill="none">
  <path d="M14.2553 8.2625C14.0934 6.96921 14.2789 5.65614 14.7928 4.45833C14.8678 4.30833 15.0094 4.13333 14.8678 3.97083C14.7261 3.80833 14.5303 3.92083 14.3636 3.97083C13.9339 4.09583 13.5347 4.30845 13.1913 4.59529C12.8478 4.88213 12.5674 5.23698 12.3678 5.6375C12.2553 5.83333 12.1761 6.02917 11.8719 5.9875C10.8453 5.85354 9.80703 5.83398 8.77611 5.92917C8.00298 5.97576 7.24805 6.18295 6.55944 6.5375C5.49764 7.12197 4.66496 8.04864 4.19694 9.16667C4.17422 9.11167 4.15746 9.0544 4.14694 8.99583C4.03027 8.45417 3.73027 8.1625 3.25944 8.23333H3.25111C3.14367 8.24686 3.04012 8.28217 2.94681 8.3371C2.85349 8.39203 2.77236 8.46543 2.70839 8.5528C2.64442 8.64018 2.59896 8.73968 2.57478 8.84523C2.5506 8.95079 2.54822 9.06016 2.56777 9.16667C2.54263 9.62774 2.62955 10.088 2.82112 10.5082C3.01269 10.9283 3.30319 11.2958 3.66777 11.5792C3.80052 11.6701 3.89538 11.8064 3.93444 11.9625C4.17935 12.9935 4.74546 13.92 5.55111 14.6083C5.69675 14.7276 5.8109 14.8807 5.88355 15.0543C5.95619 15.228 5.98512 15.4168 5.96777 15.6042C5.85527 16.7375 6.30527 17.3125 7.53861 17.4792C7.63336 17.5015 7.72937 17.5182 7.82611 17.5292C8.65944 17.7 8.56777 17.6958 8.72194 16.9375C8.82611 16.4292 9.03027 16.2792 9.55527 16.3583C9.9804 16.4166 10.4098 16.4375 10.8386 16.4208C11.8678 16.4208 11.8719 16.4208 12.1511 17.3833C12.2011 17.5583 12.2386 17.75 12.4844 17.7042C13.0548 17.6502 13.6154 17.5199 14.1511 17.3167C14.3544 17.2478 14.5321 17.119 14.6608 16.9472C14.7895 16.7754 14.8631 16.5686 14.8719 16.3542C14.7844 15.4667 15.0719 15.1042 15.6053 14.4417C15.6803 14.3542 15.8386 14.2 15.9261 14.075C16.0837 13.8247 16.2992 13.616 16.5545 13.4666C16.8098 13.3172 17.0973 13.2314 17.3928 13.2167C17.8969 13.1917 18.1219 13.0375 18.1219 12.4583V10.7083C18.1407 10.5273 18.0873 10.3462 17.9735 10.2043C17.8596 10.0623 17.6944 9.97096 17.5136 9.95C17.2285 9.89315 16.9618 9.76682 16.7372 9.5822C16.5126 9.39758 16.3371 9.16039 16.2261 8.89167C15.7833 8.02344 15.1007 7.30041 14.2594 6.80833M14.9386 11.3333C14.7414 11.3215 14.557 11.232 14.4258 11.0843C14.2945 10.9367 14.2272 10.743 14.2386 10.5458C14.2494 10.352 14.3366 10.1703 14.4811 10.0407C14.6256 9.91101 14.8156 9.84394 15.0094 9.85417C15.1105 9.85481 15.2104 9.87598 15.303 9.9164C15.3956 9.95682 15.4791 10.0156 15.5483 10.0893C15.6174 10.1629 15.671 10.2499 15.7055 10.3448C15.7401 10.4398 15.755 10.5408 15.7494 10.6417C15.7437 10.7426 15.7176 10.8413 15.6726 10.9318C15.6277 11.0223 15.5648 11.1027 15.4878 11.1682C15.4108 11.2337 15.3213 11.2828 15.2248 11.3126C15.1282 11.3424 15.0266 11.3523 14.9261 11.3417L14.9386 11.3333Z" stroke="white" stroke-linecap="round" stroke-linejoin="round"/>
  <path d="M7.39234 6.175C7.05624 5.95776 6.79478 5.64277 6.64313 5.27243C6.49148 4.90209 6.45693 4.49418 6.54413 4.10361C6.63133 3.71304 6.83609 3.35855 7.13086 3.08788C7.42562 2.81721 7.79624 2.64334 8.19281 2.58968C8.58938 2.53602 8.99288 2.60514 9.34897 2.78774C9.70507 2.97034 9.99668 3.25766 10.1845 3.61101C10.3724 3.96436 10.4475 4.36678 10.3997 4.76411C10.352 5.16144 10.1836 5.53459 9.91733 5.83333" stroke="white" stroke-linecap="round" stroke-linejoin="round"/>
</svg>