<svg xmlns="http://www.w3.org/2000/svg" width="104" height="26" viewBox="0 0 104 26" fill="none">
  <path fill-rule="evenodd" clip-rule="evenodd" d="M33.2559 25.4078H37.1796V14.2966H39.2869C44.8092 14.2966 52.149 13.8514 52.149 7.40723C52.149 0.888555 45.2459 0.369967 39.723 0.369967H28.6777V1.03655C32.602 1.48111 33.2559 2.07429 33.2559 4.36992V25.4078ZM37.1796 4.36986C37.1796 2.1477 37.3973 1.8517 41.1039 1.8517C45.1727 1.8517 47.6429 3.7034 47.6429 7.40723C47.6429 12.2223 43.4289 12.8889 39.1417 12.8889H37.1796V4.36986ZM56.3637 4.81448C56.3637 1.77767 55.7094 1.55576 51.7853 1.03655V0.369967H60.9408L75.2558 20.7413H75.3283V0.369967H77.7269V25.4078H74.2384L58.8335 3.62999H58.761V25.4078H56.3637V4.81448ZM103.45 24.7406C101.27 25.3338 99.1632 25.7778 94.8754 25.7778C86.3011 25.7778 81.6503 19.6302 81.6503 12.0737C81.6503 5.33307 84.4119 0 93.7855 0C100.689 0 103.16 2.96222 103.45 5.48107H99.0175C98.8 4.29596 98.0001 1.70314 93.4949 1.70314C88.6266 1.70314 86.0836 5.40766 86.0836 11.1112C86.0836 16.3708 87.391 24.1487 97.4189 24.1487C100.107 24.1487 102.942 23.3335 103.45 23.1855V24.7406Z" fill="#B6B3EB"/>
  <path fill-rule="evenodd" clip-rule="evenodd" d="M19.1202 14.6693H16.2779C16.3962 14.3678 16.3376 13.9457 16.1005 13.4623L14.5014 10.7462L11.8366 5.9764C11.8366 5.9764 10.83 4.0447 9.34973 2.89798C10.2971 3.26028 22.2592 10.3834 22.2592 10.3834C24.2137 11.5909 25.9306 14.609 19.1202 14.6693ZM10.1192 22.3366C8.16474 23.4833 4.67082 23.4833 8.04642 17.4471C8.63844 16.42 9.46755 14.9115 9.46755 14.9115C9.70468 15.213 10.0601 15.3939 10.5929 15.3939H19.1202C19.1202 15.3939 21.2526 15.4542 22.97 14.7306C22.2001 15.3336 10.1192 22.3366 10.1192 22.3366ZM6.03332 5.67438C6.03332 3.38089 7.80984 0.30151 11.2446 6.27836C11.8366 7.36531 12.6657 8.81404 12.6657 8.81404C12.3103 8.87387 12.0141 9.11606 11.7183 9.59897L10.1784 12.3758L7.45444 17.0843C7.45444 17.0843 6.32908 18.9557 6.09245 20.8884C5.97364 19.8009 6.03332 5.67438 6.03332 5.67438ZM12.8432 0C5.85537 0 0.229492 5.73517 0.229492 12.8587C0.229492 19.9819 5.85537 25.7778 12.8432 25.7778C19.8315 25.7778 25.5165 19.9819 25.5165 12.8587C25.5165 5.73517 19.8315 0 12.8432 0Z" fill="#B6B3EB"/>
  <path d="M23.04 24.3286H23.2572C23.4841 24.3286 23.6282 24.2021 23.6282 24.0104C23.6282 23.7946 23.474 23.6997 23.25 23.6968C23.1472 23.6968 23.0744 23.7071 23.04 23.717V24.3286ZM22.8281 23.5658C22.9353 23.5431 23.089 23.5303 23.2355 23.5303C23.4624 23.5303 23.6083 23.5728 23.7111 23.6676C23.794 23.7417 23.8405 23.8563 23.8405 23.9852C23.8405 24.2071 23.7038 24.3538 23.5307 24.4135V24.4209C23.6573 24.4654 23.7329 24.585 23.7717 24.7588C23.8255 24.9925 23.8648 25.1541 23.8992 25.2188H23.6791C23.6519 25.1693 23.6161 25.027 23.5695 24.8186C23.5205 24.587 23.4323 24.5004 23.2398 24.4926H23.04V25.2188H22.8281V23.5658Z" fill="#B6B3EB"/>
  <path d="M22.1499 24.3835C22.1513 25.0376 22.6706 25.5657 23.3112 25.5667C23.9531 25.5657 24.4704 25.0376 24.4724 24.3835C24.4704 23.7304 23.9531 23.2028 23.3112 23.2014C22.6706 23.2029 22.1513 23.7305 22.1499 24.3835ZM21.9463 24.3835C21.9463 23.6159 22.5567 22.9934 23.3112 22.9934C24.0651 22.9934 24.6775 23.6159 24.6775 24.3835C24.6775 25.1527 24.0651 25.7761 23.3112 25.7761C22.5567 25.7761 21.9463 25.1527 21.9463 24.3835Z" fill="#B6B3EB"/>
</svg>