<svg width="45" height="44" viewBox="0 0 45 44" fill="none" xmlns="http://www.w3.org/2000/svg">
<g id="fi-br-pound" clip-path="url(#clip0_355_7108)">
<path id="Vector" d="M38.0523 26.5374L24.2236 34.6037C23.987 33.2603 23.5015 31.973 22.7921 30.8079L20.1049 26.201L26.4394 22.5061C26.8976 22.2389 27.2308 21.8006 27.3659 21.2876C27.5009 20.7746 27.4266 20.229 27.1593 19.7709C26.892 19.3127 26.4537 18.9794 25.9407 18.8444C25.4278 18.7094 24.8822 18.7837 24.424 19.051L18.0895 22.7459L16.0741 19.2907C15.2141 17.8096 14.9554 16.055 15.3515 14.3887C15.7475 12.7225 16.768 11.2718 18.2025 10.3361C19.6369 9.40036 21.3758 9.05096 23.0604 9.35999C24.7449 9.66902 26.2466 10.6129 27.2555 11.9969C27.5227 12.455 27.961 12.7883 28.474 12.9233C28.987 13.0583 29.5326 12.984 29.9907 12.7167C30.4489 12.4495 30.7822 12.0112 30.9172 11.4982C31.0522 10.9852 30.9779 10.4396 30.7106 9.98145C28.0268 5.38032 21.367 3.85473 16.4584 6.71794C14.0172 8.14557 12.2419 10.4833 11.5222 13.2181C10.8024 15.953 11.1968 18.8617 12.619 21.3061L14.6344 24.7613L12.9068 25.769C12.4486 26.0362 12.1154 26.4746 11.9804 26.9875C11.8454 27.5005 11.9197 28.0461 12.1869 28.5043C12.4542 28.9624 12.8925 29.2957 13.4055 29.4307C13.9184 29.5657 14.464 29.4914 14.9222 29.2241L16.6498 28.2164L19.337 32.8233C21.0722 35.7982 20.5036 36.7736 18.4731 37.958C18.0149 38.2253 17.6816 38.6636 17.5466 39.1765C17.4116 39.6895 17.4859 40.2351 17.7532 40.6933C18.0205 41.1515 18.4588 41.4847 18.9717 41.6197C19.4847 41.7547 20.0303 41.6804 20.4885 41.4132L40.0677 29.9926C40.5259 29.7253 40.8592 29.287 40.9942 28.774C41.1292 28.261 41.0549 27.7155 40.7876 27.2573C40.5204 26.7991 40.082 26.4658 39.5691 26.3308C39.0561 26.1958 38.5105 26.2701 38.0523 26.5374Z" fill="white" fill-opacity="0.1"/>
</g>
<defs>
<clipPath id="clip0_355_7108">
<rect width="32" height="32" fill="white" transform="translate(0.333984 16.1233) rotate(-30.255)"/>
</clipPath>
</defs>
</svg>
