<svg width="46" height="45" viewBox="0 0 46 45" fill="none" xmlns="http://www.w3.org/2000/svg">
<g id="fi-br-euro" clip-path="url(#clip0_355_7106)">
<path id="Vector" d="M27.7654 35.6014C25.8248 36.0878 23.7934 36.0806 21.8563 35.5807C19.9193 35.0807 18.1381 34.1039 16.6754 32.7391C15.2126 31.3744 14.1147 29.6652 13.4818 27.7674C12.8489 25.8695 12.7011 23.8435 13.0519 21.8739L22.2226 28.6459C22.6493 28.961 23.1837 29.0937 23.7082 29.0148C24.2327 28.9358 24.7044 28.6518 25.0195 28.2251C25.3346 27.7984 25.4673 27.264 25.3884 26.7394C25.3094 26.2149 25.0254 25.7432 24.5987 25.4281L14.4724 17.9505C14.9141 17.1756 15.4458 16.4555 16.0565 15.8053L26.1828 23.283C26.6095 23.598 27.1439 23.7307 27.6684 23.6518C28.1929 23.5729 28.6646 23.2888 28.9797 22.8621C29.2948 22.4354 29.4275 21.901 29.3486 21.3765C29.2696 20.852 28.9856 20.3803 28.5589 20.0652L19.3883 13.2932C21.1674 12.3784 23.1472 11.9235 25.1473 11.9699C27.1473 12.0164 29.1039 12.5627 30.8386 13.5591C32.5734 14.5556 34.0311 15.9704 35.0789 17.6746C36.1267 19.3788 36.7313 21.3182 36.8374 23.316C36.8661 23.8457 37.104 24.3424 37.4988 24.6967C37.8936 25.051 38.413 25.234 38.9428 25.2054C39.4725 25.1768 39.9692 24.9389 40.3235 24.5441C40.6778 24.1492 40.8608 23.6298 40.8322 23.1001C40.6813 20.2729 39.7821 17.5365 38.2268 15.1707C36.6714 12.805 34.5156 10.8947 31.9799 9.6354C29.4441 8.37606 26.6194 7.81279 23.7946 8.0032C20.9697 8.1936 18.2462 9.13085 15.9023 10.7191L14.6152 9.76864C14.1885 9.45354 13.6541 9.32086 13.1296 9.39978C12.6051 9.4787 12.1334 9.76275 11.8183 10.1895C11.5032 10.6162 11.3705 11.1506 11.4494 11.6751C11.5284 12.1996 11.8124 12.6713 12.2391 12.9864L12.8301 13.4228C12.5379 13.7557 12.2511 14.0925 11.9834 14.455C11.7157 14.8175 11.4782 15.1908 11.246 15.568L10.655 15.1316C10.2283 14.8165 9.69393 14.6838 9.1694 14.7627C8.64487 14.8416 8.17317 15.1257 7.85808 15.5524C7.54299 15.9791 7.4103 16.5135 7.48922 17.038C7.56814 17.5626 7.8522 18.0343 8.2789 18.3493L9.56601 19.2998C8.73775 22.0072 8.64342 24.886 9.29266 27.6418C9.9419 30.3976 11.3114 32.9315 13.2612 34.9844C15.2109 37.0374 17.6709 38.5356 20.3896 39.326C23.1083 40.1163 25.9881 40.1705 28.7346 39.4828C29.2493 39.3543 29.6918 39.0266 29.9649 38.5717C30.238 38.1169 30.3192 37.5722 30.1907 37.0575C30.127 36.8027 30.0138 36.5628 29.8575 36.3517C29.7012 36.1406 29.5048 35.9624 29.2796 35.8272C28.8248 35.5541 28.2801 35.4729 27.7654 35.6014Z" fill="white" fill-opacity="0.1"/>
</g>
<defs>
<clipPath id="clip0_355_7106">
<rect width="32" height="32" fill="white" transform="translate(19.3428) rotate(36.4436)"/>
</clipPath>
</defs>
</svg>
