<svg xmlns="http://www.w3.org/2000/svg" width="55" height="35" viewBox="0 0 55 35" fill="none">
  <path d="M0.333984 7.58V18.95H16.1711C16.1675 21.462 14.9746 23.8703 12.8539 25.6465C10.7332 27.4228 7.85798 28.422 4.85889 28.425V34.11C9.65755 34.1055 14.2581 32.5068 17.6513 29.6648C21.0445 26.8227 22.9531 22.9693 22.9585 18.95V0H9.38379C6.98363 0 4.68178 0.798605 2.98461 2.22013C1.28744 3.64166 0.333984 5.56966 0.333984 7.58Z" fill="#5D55FF" fill-opacity="0.1"/>
  <path d="M41.0579 0C38.6577 0 36.3559 0.798605 34.6587 2.22013C32.9616 3.64166 32.0081 5.56966 32.0081 7.58V18.95H47.8452C47.8416 21.462 46.6487 23.8703 44.528 25.6465C42.4073 27.4228 39.5321 28.422 36.533 28.425V34.11C41.3317 34.1055 45.9322 32.5068 49.3254 29.6648C52.7185 26.8227 54.6272 22.9693 54.6326 18.95V0H41.0579Z" fill="#5D55FF" fill-opacity="0.1"/>
</svg>