<svg xmlns="http://www.w3.org/2000/svg" width="21" height="20" viewBox="0 0 21 20" fill="none">
  <path d="M15.3343 9.16667L15.3343 5.83333L5.33431 5.83333V15.8333C5.33431 16.7538 6.0805 17.5 7.00098 17.5H13.6676C14.5881 17.5 15.3343 16.7538 15.3343 15.8333V9.16667ZM15.3343 9.16667C17.1753 9.16667 18.6676 7.67428 18.6676 5.83333C18.6676 3.99239 17.1753 2.5 15.3343 2.5H5.33431C3.49336 2.5 2.00098 3.99238 2.00098 5.83333C2.00098 7.67428 3.49336 9.16667 5.33431 9.16667" stroke="white" stroke-linejoin="round"/>
  <path d="M12.0003 10.4882L10.9229 9.41075C10.5975 9.08531 10.0698 9.08531 9.7444 9.41075L8.66699 10.4882M10.3337 13.8215V9.65483" stroke="white" stroke-linecap="round"/>
</svg>