<svg xmlns="http://www.w3.org/2000/svg" width="25" height="24" viewBox="0 0 25 24" fill="none">
  <path d="M21.559 14.957V17.9035C21.559 18.4268 21.3511 18.9286 20.9811 19.2986C20.6111 19.6686 20.1093 19.8765 19.586 19.8765H4.5565C4.03331 19.8765 3.53155 19.6687 3.16155 19.2988C2.79156 18.9289 2.58363 18.4272 2.5835 17.904V6.0965C2.58343 5.83736 2.63442 5.58075 2.73354 5.34131C2.83266 5.10188 2.97798 4.88432 3.1612 4.70106C3.34441 4.51779 3.56194 4.37242 3.80135 4.27323C4.04075 4.17405 4.29736 4.123 4.5565 4.123H19.586C19.8451 4.123 20.1017 4.17405 20.3411 4.27323C20.5806 4.37242 20.7981 4.51779 20.9813 4.70106C21.1645 4.88432 21.3098 5.10188 21.409 5.34131C21.5081 5.58075 21.5591 5.83736 21.559 6.0965V9.1455" stroke="white" stroke-linecap="round" stroke-linejoin="round"/>
  <path d="M21.4803 14.9625H16.2958C15.5237 14.9625 14.7833 14.6558 14.2374 14.1099C13.6915 13.564 13.3848 12.8235 13.3848 12.0515C13.3847 11.6692 13.4599 11.2906 13.6062 10.9374C13.7525 10.5841 13.9669 10.2632 14.2372 9.99279C14.5075 9.72242 14.8284 9.50796 15.1817 9.36163C15.5349 9.21531 15.9134 9.14 16.2958 9.14H21.4808C21.8133 9.14 22.0833 9.41 22.0833 9.743V14.36C22.0833 14.6925 21.8133 14.9625 21.4803 14.9625Z" stroke="white" stroke-linecap="round" stroke-linejoin="round"/>
  <path d="M16.5625 13.438C17.3094 13.438 17.915 12.8325 17.915 12.0855C17.915 11.3385 17.3094 10.733 16.5625 10.733C15.8155 10.733 15.21 11.3385 15.21 12.0855C15.21 12.8325 15.8155 13.438 16.5625 13.438Z" stroke="white" stroke-linecap="round" stroke-linejoin="round"/>
</svg>