<svg xmlns="http://www.w3.org/2000/svg" width="25" height="24" viewBox="0 0 25 24" fill="none">
  <path d="M16.1044 9.29229C15.8714 9.41495 15.6465 9.5452 15.4296 9.68308C15.2208 9.81584 15.022 9.96251 14.8333 10.1231V10.1002L14.7799 10.072L11.58 8.38439L11.5333 8.35979L11.4867 8.38439L8.28672 10.072L8.23337 10.1002V10.1605V13.5126V13.5729L8.28672 13.6011L11.4867 15.2887L11.5334 15.3133L11.58 15.2887L12.6359 14.7307C12.6341 14.7519 12.6333 14.7736 12.6333 14.7957C12.6333 15.0317 12.6503 15.2676 12.6843 15.5035C12.7144 15.7123 12.7579 15.9181 12.8146 16.1208L11.5334 16.7979L6.83339 14.3078V9.36529L11.5334 6.87524L16.1044 9.29229ZM1.88674 6.68524L1.83347 6.7134V6.77365V16.8995V16.9598L1.88684 16.9879L9.00178 20.7379C8.83281 20.9006 8.67845 21.0498 8.5387 21.1855C8.38248 21.3372 8.24558 21.5282 8.12699 21.7567L0.433496 17.6945V5.97854L5.98013 3.04755L11.5333 0.113103L22.6331 5.97854V9.12014C22.1853 8.90276 21.7186 8.73743 21.2332 8.62419V6.77365V6.7134L21.1799 6.68524L11.58 1.61078L11.5333 1.58608L11.4866 1.61078L1.88674 6.68524ZM19.532 10.457H19.5332C20.1795 10.457 20.7878 10.5704 21.3588 10.7967C21.9314 11.0237 22.429 11.3332 22.8527 11.725C23.2764 12.1168 23.6147 12.5802 23.8677 13.1161C24.1196 13.6495 24.2412 14.2086 24.2331 14.7943V14.7957C24.2331 15.3982 24.111 15.9577 23.8676 16.4755C23.623 16.9957 23.2889 17.4555 22.8645 17.8554C22.4411 18.2545 21.9398 18.5676 21.3593 18.7945C20.7795 19.021 20.171 19.1344 19.5332 19.1344C19.0426 19.1344 18.5645 19.0664 18.0987 18.9303C17.6334 18.7945 17.2053 18.5946 16.8141 18.3308L16.7486 18.2866L16.6904 18.3402L11.228 23.38L11.2279 23.3801C11.0882 23.5093 10.925 23.5731 10.7333 23.5731C10.5417 23.5731 10.3785 23.5093 10.2387 23.3801C10.0991 23.251 10.0333 23.1035 10.0333 22.9333C10.0333 22.7631 10.0991 22.6157 10.2387 22.4866L10.2388 22.4865L15.6887 17.4352L15.7564 17.3724L15.6993 17.2999C15.4145 16.9388 15.1992 16.5442 15.0529 16.1158C14.9064 15.6869 14.8333 15.247 14.8333 14.7957C14.8333 14.2011 14.9552 13.6414 15.199 13.1154C15.4435 12.5878 15.7775 12.1284 16.2011 11.7366C16.6251 11.3445 17.1231 11.031 17.6961 10.7963C18.2663 10.5628 18.878 10.4494 19.532 10.457ZM19.5315 17.8548V17.8548H19.5332C19.9867 17.8548 20.412 17.7756 20.808 17.6164C21.2019 17.458 21.5536 17.24 21.8625 16.9623C22.1725 16.6836 22.4102 16.3601 22.5744 15.9924C22.7386 15.6248 22.8245 15.2262 22.8331 14.7977L22.8331 14.7977V14.7957C22.8331 14.3732 22.7468 13.9771 22.5736 13.6088C22.4015 13.2428 22.165 12.9168 21.8646 12.631C21.5631 12.3443 21.2143 12.1254 20.8188 11.9743C20.4237 11.8234 19.9954 11.7445 19.5349 11.7366V11.7366H19.5332C19.0796 11.7366 18.6544 11.8157 18.2584 11.975C17.8645 12.1333 17.5128 12.3514 17.2039 12.6291C16.8939 12.9078 16.6562 13.2312 16.4919 13.599C16.3278 13.9666 16.2418 14.3652 16.2333 14.7937L16.2332 14.7937V14.7957C16.2332 15.2182 16.3195 15.6142 16.4927 15.9826C16.6648 16.3486 16.9014 16.6746 17.2018 16.9604C17.5032 17.2471 17.8521 17.466 18.2475 17.6171C18.6427 17.768 19.071 17.8469 19.5315 17.8548Z" fill="white" stroke="#5D55FF" stroke-width="0.2"/>
</svg>