<svg width="15" height="14" viewBox="0 0 15 14" fill="none" xmlns="http://www.w3.org/2000/svg">
<g id="Star">
<path id="Stroke 1" fill-rule="evenodd" clip-rule="evenodd" d="M8.16218 1.13275L9.53274 3.87082C9.66706 4.13962 9.92633 4.32601 10.227 4.36914L13.293 4.81046C14.0505 4.91983 14.3519 5.83791 13.8037 6.36396L11.5866 8.49433C11.3687 8.70382 11.2696 9.00497 11.3211 9.30073L11.8443 12.3084C11.9732 13.0524 11.1813 13.62 10.5042 13.268L7.76389 11.847C7.49525 11.7076 7.1735 11.7076 6.90407 11.847L4.16374 13.268C3.48666 13.62 2.69478 13.0524 2.82442 12.3084L3.34687 9.30073C3.39841 9.00497 3.29923 8.70382 3.08135 8.49433L0.864244 6.36396C0.316021 5.83791 0.617466 4.91983 1.37498 4.81046L4.44097 4.36914C4.74164 4.32601 5.00169 4.13962 5.13601 3.87082L6.50579 1.13275C6.84472 0.455748 7.82325 0.455748 8.16218 1.13275Z" fill="#FFB800"/>
</g>
</svg>
