<svg xmlns="http://www.w3.org/2000/svg" width="62" height="26" viewBox="0 0 62 26" fill="none">
  <path fill-rule="evenodd" clip-rule="evenodd" d="M61.334 13.3191C61.334 8.91379 59.2408 5.43774 55.2402 5.43774C51.2227 5.43774 48.792 8.91379 48.792 13.2847C48.792 18.4643 51.6616 21.0799 55.7804 21.0799C57.7891 21.0799 59.3084 20.6153 60.4562 19.9614V16.5198C59.3084 17.1049 57.9917 17.4662 56.3206 17.4662C54.6832 17.4662 53.2315 16.8812 53.0458 14.8506H61.3002C61.3002 14.6269 61.334 13.7321 61.334 13.3191ZM52.9952 11.6843C52.9952 9.73978 54.1599 8.93099 55.2233 8.93099C56.253 8.93099 57.3503 9.73978 57.3503 11.6843H52.9952Z" fill="#B6B3EB"/>
  <path fill-rule="evenodd" clip-rule="evenodd" d="M42.2758 5.43774C40.6215 5.43774 39.5581 6.22932 38.9673 6.77998L38.7478 5.71307H35.0342V25.7777L39.2542 24.8657L39.2711 19.9958C39.8788 20.4432 40.7734 21.0799 42.2589 21.0799C45.2805 21.0799 48.0319 18.602 48.0319 13.147C48.0151 8.15663 45.2298 5.43774 42.2758 5.43774ZM41.263 17.2941C40.267 17.2941 39.6762 16.9328 39.2711 16.4854L39.2542 10.1011C39.6931 9.60211 40.3008 9.25795 41.263 9.25795C42.7991 9.25795 43.8625 11.0132 43.8625 13.2674C43.8625 15.5733 42.816 17.2941 41.263 17.2941Z" fill="#B6B3EB"/>
  <path fill-rule="evenodd" clip-rule="evenodd" d="M33.4654 0L29.2285 0.912031V4.42249L33.4654 3.49325V0Z" fill="#B6B3EB"/>
  <path fill-rule="evenodd" clip-rule="evenodd" d="M29.2285 5.73022H33.4654V20.7873H29.2285V5.73022Z" fill="#B6B3EB"/>
  <path fill-rule="evenodd" clip-rule="evenodd" d="M24.6867 7.00376L24.4166 5.73036H20.7705V20.7875H24.9906V10.5831C25.9865 9.25803 27.6745 9.49894 28.1978 9.68823V5.73036C27.6576 5.52387 25.6826 5.14529 24.6867 7.00376Z" fill="#B6B3EB"/>
  <path fill-rule="evenodd" clip-rule="evenodd" d="M16.247 1.99609L12.1282 2.89092L12.1113 16.6746C12.1113 19.2214 13.985 21.0971 16.4833 21.0971C17.8675 21.0971 18.8803 20.839 19.4373 20.5292V17.036C18.8972 17.2597 16.2301 18.0513 16.2301 15.5045V9.39559H19.4373V5.73026H16.2301L16.247 1.99609Z" fill="#B6B3EB"/>
  <path fill-rule="evenodd" clip-rule="evenodd" d="M4.83612 10.1011C4.83612 9.43003 5.37629 9.17191 6.27094 9.17191C7.55384 9.17191 9.17433 9.56769 10.4572 10.2732V6.22932C9.05617 5.66145 7.672 5.43774 6.27094 5.43774C2.84426 5.43774 0.56543 7.26181 0.56543 10.3076C0.56543 15.0571 6.97991 14.2999 6.97991 16.3477C6.97991 17.1393 6.3047 17.3974 5.35941 17.3974C3.95835 17.3974 2.16905 16.8123 0.751112 16.0207V20.1163C2.32097 20.8046 3.90771 21.0971 5.35941 21.0971C8.87049 21.0971 11.2844 19.3247 11.2844 16.2444C11.2675 11.1164 4.83612 12.0285 4.83612 10.1011Z" fill="#B6B3EB"/>
</svg>