<svg xmlns="http://www.w3.org/2000/svg" width="21" height="20" viewBox="0 0 21 20" fill="none">
  <path d="M6.85098 13.3333V13.4833H7.00098H18.5176V14.85H15.3343H15.1843V15V16.6667V16.8167H15.3343H16.6388L14.501 18.9545L12.3631 16.8167H13.6676H13.8176V16.6667V15V14.85H13.6676H7.00098C6.16715 14.85 5.48431 14.1672 5.48431 13.3333V6.66667V6.51667H5.33431H2.15098V5.15H5.33431H5.48431V5V3.33334V3.18334H5.33431H4.02978L6.16764 1.04547L8.30551 3.18334H7.00098H6.85098V3.33334V13.3333ZM13.8176 6.66667V6.51667H13.6676H8.81764V5.15H13.6676C14.5015 5.15 15.1843 5.83284 15.1843 6.66667V11.5167H13.8176V6.66667Z" fill="white" stroke="#5D55FF" stroke-width="0.3"/>
</svg>