<svg width="42" height="41" viewBox="0 0 42 41" fill="none" xmlns="http://www.w3.org/2000/svg">
<g id="Object" clip-path="url(#clip0_355_7066)">
<path id="Vector" d="M0.333984 0V39.8843C0.333984 40.1786 0.453211 40.466 0.660753 40.6737C0.870188 40.8814 1.15911 41 1.45496 41H40.6836V38.7687H2.57595V0H0.333984Z" fill="white" fill-opacity="0.1"/>
<path id="Vector_2" d="M39.6455 14.1097C40.5779 14.1097 41.3336 13.358 41.3336 12.4312V5.51251C41.3336 5.07076 41.1544 4.63842 40.8397 4.32593C40.5261 4.01345 40.0909 3.83398 39.6455 3.83398H33.1972C32.2648 3.83398 31.5091 4.58509 31.5091 5.51188C31.5091 6.43868 32.2648 7.19104 33.1972 7.19104H35.4253L23.5184 21.1752L23.4572 16.9711C23.4465 16.2714 23.0005 15.6508 22.3387 15.4149C21.6776 15.1783 20.9364 15.376 20.4816 15.91L4.88691 34.2263C4.28384 34.9335 4.37152 35.9933 5.08372 36.5926C5.79467 37.1918 6.8595 37.104 7.46194 36.3962L20.146 21.4984L20.2078 25.7032C20.2179 26.4022 20.6626 27.0234 21.3256 27.2593C21.9867 27.4946 22.7286 27.297 23.1828 26.7636L37.9593 9.40983V12.4312C37.9593 13.358 38.715 14.1097 39.6461 14.1097H39.6455Z" fill="white" fill-opacity="0.1"/>
</g>
<defs>
<clipPath id="clip0_355_7066">
<rect width="41" height="41" fill="white" transform="translate(0.333984)"/>
</clipPath>
</defs>
</svg>
