<svg xmlns="http://www.w3.org/2000/svg" width="19" height="16" viewBox="0 0 19 16" fill="none">
  <path d="M12.6203 0.666687C10.5164 0.666687 8.81094 2.30831 8.81094 4.33335C8.81094 4.63936 8.84988 4.9366 8.92326 5.22076C6.90034 5.22076 3.85337 4.84584 1.30867 2.50883C0.970283 2.19806 0.346313 2.40584 0.369784 2.84439C0.74691 9.89079 4.039 11.9462 5.73433 12.0741C4.63958 13.0652 3.04933 13.8476 1.44912 14.1987C1.02679 14.2914 0.922464 14.7152 1.33543 14.8383C2.48046 15.1797 4.11939 15.3112 5.00158 15.3334C11.2424 15.3334 16.3148 10.5182 16.4277 4.53712C17.2471 4.04868 17.7719 2.98814 18.0668 2.23685C18.1387 2.05388 17.8115 1.84069 17.6157 1.91543C17.0036 2.14901 16.2265 2.20438 15.5646 2.00668C14.866 1.18851 13.8065 0.666687 12.6203 0.666687Z" fill="#B6B3EB"/>
</svg>