<svg xmlns="http://www.w3.org/2000/svg" width="128" height="26" viewBox="0 0 128 26" fill="none">
  <mask id="mask0_355_7126" style="mask-type:luminance" maskUnits="userSpaceOnUse" x="0" y="0" width="26" height="26">
    <path d="M16.1009 21.3016C17.7614 21.2808 19.3374 21.033 20.7323 20.5554C21.0831 20.4347 21.4185 20.3012 21.7355 20.1568C21.3473 21.1228 20.7774 21.9286 20.0341 22.5275C18.5681 23.6278 16.8385 24.3826 14.961 24.6706C15.4302 23.8432 15.8092 22.674 16.1009 21.3016ZM8.28591 23.6486C8.25139 23.6192 8.21405 23.5919 8.17178 23.5718C7.51871 23.2471 7.25452 21.7627 7.59479 19.4925C8.85021 20.0677 10.2169 20.5238 11.6534 20.8362C12.7419 21.0732 13.8268 21.2197 14.8871 21.2764C14.3671 23.5804 13.7007 24.7905 13.259 24.7905C13.2308 24.7905 13.2033 24.7956 13.1765 24.7999C11.4266 24.7877 9.76817 24.3776 8.28591 23.6486ZM2.22229 16.3095C2.12177 15.9199 2.05831 15.5214 2.03278 15.1195C2.42589 15.6897 2.90425 16.2456 3.47419 16.7828C4.33508 17.5929 5.3566 18.3183 6.49507 18.9402C6.26259 20.266 6.19707 21.4675 6.34361 22.4356C4.38158 20.9231 2.9134 18.7822 2.22229 16.3095ZM16.8413 13.0899C16.8413 12.6216 16.8343 12.1512 16.8209 11.6829C18.2841 11.5838 19.6389 11.196 20.7478 10.5461C21.7749 12.6173 22.3258 14.8027 22.3216 16.8654C22.3209 17.4629 22.2702 18.031 22.1772 18.5675C21.6488 18.8971 21.0408 19.1829 20.3568 19.4185C19.1422 19.8351 17.7741 20.062 16.3235 20.1001C16.673 17.9692 16.8413 15.4951 16.8413 13.0899ZM11.9 19.6648C10.4431 19.3467 9.06649 18.8748 7.82023 18.278C8.22955 16.4007 8.99181 14.1262 10.1993 11.6011C10.3747 11.2355 10.5537 10.8757 10.7362 10.5238C11.5808 10.9102 12.5002 11.2168 13.464 11.4266C14.1959 11.5867 14.9286 11.6736 15.6451 11.6987C15.6585 12.1483 15.6641 12.6116 15.6641 13.0899C15.6641 15.9131 15.4429 18.2565 15.1231 20.0879C14.0719 20.0412 12.9891 19.9011 11.9 19.6648ZM4.27309 15.903C3.27411 14.9622 2.58722 13.9653 2.23709 12.9757C2.51466 11.8668 3.05148 10.7536 3.84123 9.68711C4.59011 8.67591 5.52216 7.76526 6.59088 6.98243C6.89945 7.55052 7.33131 8.10496 7.88152 8.63067C8.40426 9.1298 9.01365 9.58226 9.68927 9.97798C9.50174 10.3408 9.31995 10.7066 9.14398 11.0754C8.10062 13.2551 7.24889 15.5942 6.74869 17.7157C5.81946 17.1821 4.98463 16.5745 4.27309 15.903ZM16.0424 4.76181C17.3796 5.7766 18.6054 7.08585 19.6304 8.61702C19.8249 8.90717 20.0081 9.20234 20.1821 9.50039C19.243 10.0541 18.0538 10.3852 16.7723 10.4778C16.6638 8.40875 16.4236 6.41794 16.0424 4.76181ZM13.7105 10.2545C12.8595 10.0699 12.0507 9.80346 11.3054 9.46951C12.403 7.51245 13.6028 5.81108 14.787 4.54635C15.1569 6.03012 15.4669 8.02524 15.5979 10.4987C14.9744 10.4721 14.3404 10.3924 13.7105 10.2545ZM8.68536 7.75592C8.19855 7.29197 7.82939 6.80792 7.5807 6.32171C8.68254 5.64589 9.90203 5.09505 11.2011 4.69645C11.974 4.45945 12.7559 4.28422 13.5358 4.16284C12.41 5.44911 11.2857 7.08298 10.255 8.92871C9.66602 8.58183 9.13835 8.18898 8.68536 7.75592ZM6.15621 3.9359C6.14001 3.99622 6.1231 4.05799 6.10971 4.12119C5.99065 4.6864 6.00474 5.26597 6.14423 5.84052C4.87895 6.73035 3.77853 7.78249 2.90213 8.96462C2.63513 9.32443 2.3963 9.69214 2.18002 10.062C2.83168 7.60725 4.24913 5.47137 6.15621 3.9359ZM7.25945 4.37112C7.38978 3.74917 7.75683 3.1933 8.32395 2.73366C9.69702 2.31567 11.2941 2.41622 12.9729 3.04248C12.2663 3.16744 11.5597 3.33406 10.863 3.5488C9.56598 3.94523 8.34156 4.48818 7.22 5.14747C7.19464 4.88534 7.20662 4.62535 7.25945 4.37112ZM16.8005 2.79183C17.2041 2.52538 17.5761 2.34297 17.8868 2.26756C18.4765 2.50815 19.0612 2.81625 19.6156 3.2055C18.7259 2.97856 17.7797 2.84067 16.8005 2.79183ZM14.8194 1.50844C15.2964 1.56302 15.8057 1.64633 16.3292 1.77057C16.0016 1.95012 15.662 2.17419 15.3161 2.44351C15.1625 2.08945 14.997 1.77775 14.8194 1.50844ZM13.545 1.97885C13.0131 1.77129 12.4875 1.61042 11.969 1.49551C12.3847 1.44811 12.8053 1.42082 13.2336 1.42082C13.4337 1.42297 13.6795 1.66859 13.9367 2.14331C13.8064 2.08657 13.676 2.03056 13.545 1.97885ZM0.605469 13.1107C0.605469 14.3359 0.77807 15.5202 1.09298 16.6442C1.112 16.7196 1.13032 16.795 1.15216 16.8704C1.15639 16.884 1.16273 16.897 1.16766 16.912C2.76264 22.1699 7.57577 25.9999 13.2498 25.9999C15.8748 25.9999 18.3144 25.1798 20.3378 23.7793C20.3582 23.7671 20.3786 23.7571 20.3969 23.7441C20.5167 23.6608 20.6329 23.5732 20.7457 23.4813C23.0726 21.7296 24.7902 19.1851 25.5144 16.2413C25.5553 16.1062 25.5905 15.9684 25.6201 15.829C25.6271 15.7953 25.6292 15.7637 25.6306 15.7306C25.8032 14.8839 25.8934 14.0077 25.8934 13.1114C25.8934 11.372 25.5595 9.68352 24.8994 8.0949C24.7726 7.78967 24.4281 7.64675 24.1287 7.77675C23.8292 7.90458 23.6898 8.25721 23.8159 8.56172C24.414 10.0017 24.7169 11.5328 24.7169 13.1114C24.7169 14.0788 24.5993 15.0182 24.3802 15.9181C24.2062 16.4854 23.9011 17.0104 23.4791 17.4873C23.4897 17.2841 23.496 17.0787 23.4967 16.8682C23.5017 14.5686 22.8775 12.1397 21.7207 9.85661C22.5689 9.114 23.1107 8.19617 23.2959 7.16988C23.3551 6.84454 23.1438 6.53213 22.8246 6.47181C22.5048 6.41076 22.1983 6.62621 22.1392 6.95227C22.0166 7.63095 21.6707 8.25362 21.1296 8.7822C20.9612 8.49852 20.7865 8.21771 20.6012 7.94121C19.5691 6.39855 18.3426 5.06416 17.0005 3.9991C18.7724 4.11832 20.4096 4.55569 21.7284 5.30691C21.9349 5.42685 22.2096 5.42326 22.4033 5.25879C22.6527 5.04693 22.6866 4.66773 22.4773 4.41349C20.5829 1.7124 17.3063 0.222168 13.2484 0.222168C6.27809 0.22145 0.605469 6.00355 0.605469 13.1107Z" fill="white"/>
  </mask>
  <g mask="url(#mask0_355_7126)">
    <path d="M0.605469 0.221436H25.8934V25.9999H0.605469V0.221436Z" fill="#B6B3EB"/>
  </g>
  <path d="M28.6768 5.96843H35.061V7.30355H32.7164V13.9999H31.0234V7.30355H28.6775L28.6768 5.96843ZM35.9571 13.9993V5.96783H37.6494V9.13794H40.6286V5.96795H42.3413V13.9993H40.6505V10.4723H37.6492V13.9993H35.9571ZM43.7199 5.96843H49.0023V7.30355H45.4129V9.18377H48.774V10.5182H45.4129V12.6656H49.1228V14H43.7206L43.7199 5.96843ZM57.406 5.96843H59.3145L60.6897 12.0092H60.7111L61.9778 5.96843H63.5925L61.5847 13.9999H59.7086L58.2906 7.88095H58.2692L56.7396 13.9999H54.8206L52.9001 5.96843H54.6466L55.857 12.0092H55.8811L57.406 5.96843ZM64.1675 9.98446C64.1675 7.61517 65.3455 5.80029 67.9528 5.80029C70.5595 5.80029 71.7395 7.61445 71.7395 9.98446C71.7395 12.3545 70.5595 14.1658 67.9528 14.1658C65.344 14.1658 64.1675 12.3536 64.1675 9.98446ZM65.9661 9.98446C65.9661 11.362 66.2832 12.9197 67.9521 12.9197C69.6218 12.9197 69.9388 11.362 69.9388 9.98446C69.9388 8.6041 69.6218 7.04567 67.9521 7.04567C66.2831 7.04567 65.9661 8.60494 65.9661 9.98446ZM74.5445 13.9993H72.8523V5.96783H76.2015C77.5555 5.97872 78.9413 6.42316 78.9413 8.05985C78.9413 9.10479 78.2757 9.79575 77.3047 10.0061V10.0279C78.6038 10.1722 78.6038 10.9838 78.7454 12.097C78.8228 12.609 78.887 13.5549 79.2033 13.998H77.3371C77.1962 13.2869 77.1187 12.5638 77.0434 11.8398C76.9988 11.3958 76.8892 10.784 76.3339 10.7624H74.5451V13.9979L74.5445 13.9993ZM74.5445 9.42729H75.9614C76.7053 9.41377 77.1407 9.03801 77.1407 8.32492C77.1407 7.61385 76.7054 7.31289 75.9613 7.30224H74.5445V9.42729ZM80.2378 13.9993V5.96783H81.9301V12.6649H85.3456V13.9993H80.2378ZM86.2598 5.96843H88.9453C91.3992 5.94677 92.9272 7.19155 92.9272 9.98458C92.9272 12.7762 91.3992 14.0216 88.9455 13.9994H86.2598V5.96843ZM87.9506 12.6648H88.8235C90.8327 12.6866 91.1279 11.2623 91.1279 9.98446C91.1279 8.70462 90.8328 7.28118 88.8236 7.30343H87.9506V12.6648ZM97.212 13.9993V5.96783H100.17C101.577 5.87879 103.018 6.4806 103.018 8.04848C103.018 8.92684 102.416 9.53954 101.631 9.8052V9.82698C102.625 10.0389 103.366 10.7398 103.366 11.9176C103.366 13.5084 101.4 14.0881 100.191 13.9982L97.212 13.9993ZM100.224 12.6642C101.021 12.6642 101.566 12.5193 101.566 11.5963C101.566 10.6734 101.021 10.5284 100.224 10.5284H98.9021V12.665L100.224 12.6642ZM100.224 9.19466C100.933 9.19466 101.325 8.89381 101.325 8.24881C101.325 7.60248 100.933 7.30367 100.224 7.30367H98.9021V9.19538L100.224 9.19466ZM103.891 13.9993L106.74 5.96783H108.748L111.486 13.9993H109.785L109.217 12.2972H106.096L105.506 13.9993H103.891ZM108.791 10.9629L107.711 7.53643H107.69L106.534 10.9629H108.791ZM117.074 13.9993L113.963 7.3245L113.942 7.34628V13.9981H112.361V5.96663H114.869L117.872 12.2853L117.893 12.2609V5.96507H119.476V13.9972L117.074 13.9993ZM122.544 9.43878H122.565L125.185 5.96783H127.159L124.267 9.56096L127.411 13.9994H125.305L122.566 9.9056H122.545V13.9994H120.854V5.96771H122.545L122.544 9.43878Z" fill="#B6B3EB"/>
</svg>