<svg xmlns="http://www.w3.org/2000/svg" width="40" height="40" viewBox="0 0 40 40" fill="none">
  <path d="M4.44444 5.55566C3.2657 5.55566 2.13524 6.02392 1.30175 6.85741C0.468253 7.69091 0 8.82137 0 10.0001L0 30.0001C0 31.1788 0.468253 32.3093 1.30175 33.1428C2.13524 33.9763 3.2657 34.4446 4.44444 34.4446H13.3333V5.55566H4.44444Z" fill="#009A49"/>
  <path d="M13.3335 5.55566H26.6668V34.4446H13.3335V5.55566Z" fill="#EEEEEE"/>
  <path d="M35.5554 5.55566H26.6665V34.4446H35.5554C36.7341 34.4446 37.8646 33.9763 38.6981 33.1428C39.5316 32.3093 39.9998 31.1788 39.9998 30.0001V10.0001C39.9998 8.82137 39.5316 7.69091 38.6981 6.85741C37.8646 6.02392 36.7341 5.55566 35.5554 5.55566Z" fill="#009A49"/>
</svg>