<svg width="117" height="22" viewBox="0 0 117 22" fill="none" xmlns="http://www.w3.org/2000/svg">
<path d="M3.51398 13.78H8.11398V16H0.713984V2.04H3.51398V13.78ZM20.1937 10.22C20.1937 10.62 20.167 10.98 20.1137 11.3H12.0137C12.0803 12.1 12.3603 12.7267 12.8537 13.18C13.347 13.6333 13.9537 13.86 14.6737 13.86C15.7137 13.86 16.4537 13.4133 16.8937 12.52H19.9137C19.5937 13.5867 18.9803 14.4667 18.0737 15.16C17.167 15.84 16.0537 16.18 14.7337 16.18C13.667 16.18 12.707 15.9467 11.8537 15.48C11.0137 15 10.3537 14.3267 9.87367 13.46C9.40701 12.5933 9.17367 11.5933 9.17367 10.46C9.17367 9.31333 9.40701 8.30667 9.87367 7.44C10.3403 6.57333 10.9937 5.90667 11.8337 5.44C12.6737 4.97333 13.6403 4.74 14.7337 4.74C15.787 4.74 16.727 4.96667 17.5537 5.42C18.3937 5.87333 19.0403 6.52 19.4937 7.36C19.9603 8.18667 20.1937 9.14 20.1937 10.22ZM17.2937 9.42C17.2803 8.7 17.0203 8.12667 16.5137 7.7C16.007 7.26 15.387 7.04 14.6537 7.04C13.9603 7.04 13.3737 7.25333 12.8937 7.68C12.427 8.09333 12.1403 8.67333 12.0337 9.42H17.2937ZM26.5774 4.74C27.4041 4.74 28.1308 4.90667 28.7574 5.24C29.3841 5.56 29.8774 5.98 30.2374 6.5V4.92H33.0574V16.08C33.0574 17.1067 32.8508 18.02 32.4374 18.82C32.0241 19.6333 31.4041 20.2733 30.5774 20.74C29.7508 21.22 28.7508 21.46 27.5774 21.46C26.0041 21.46 24.7108 21.0933 23.6974 20.36C22.6974 19.6267 22.1308 18.6267 21.9974 17.36H24.7774C24.9241 17.8667 25.2374 18.2667 25.7174 18.56C26.2108 18.8667 26.8041 19.02 27.4974 19.02C28.3108 19.02 28.9708 18.7733 29.4774 18.28C29.9841 17.8 30.2374 17.0667 30.2374 16.08V14.36C29.8774 14.88 29.3774 15.3133 28.7374 15.66C28.1108 16.0067 27.3908 16.18 26.5774 16.18C25.6441 16.18 24.7908 15.94 24.0174 15.46C23.2441 14.98 22.6308 14.3067 22.1774 13.44C21.7374 12.56 21.5174 11.5533 21.5174 10.42C21.5174 9.3 21.7374 8.30667 22.1774 7.44C22.6308 6.57333 23.2374 5.90667 23.9974 5.44C24.7708 4.97333 25.6308 4.74 26.5774 4.74ZM30.2374 10.46C30.2374 9.78 30.1041 9.2 29.8374 8.72C29.5708 8.22667 29.2108 7.85333 28.7574 7.6C28.3041 7.33333 27.8174 7.2 27.2974 7.2C26.7774 7.2 26.2974 7.32667 25.8574 7.58C25.4174 7.83333 25.0574 8.20667 24.7774 8.7C24.5108 9.18 24.3774 9.75333 24.3774 10.42C24.3774 11.0867 24.5108 11.6733 24.7774 12.18C25.0574 12.6733 25.4174 13.0533 25.8574 13.32C26.3108 13.5867 26.7908 13.72 27.2974 13.72C27.8174 13.72 28.3041 13.5933 28.7574 13.34C29.2108 13.0733 29.5708 12.7 29.8374 12.22C30.1041 11.7267 30.2374 11.14 30.2374 10.46ZM35.0721 10.42C35.0721 9.3 35.2921 8.30667 35.7321 7.44C36.1854 6.57333 36.7921 5.90667 37.5521 5.44C38.3254 4.97333 39.1854 4.74 40.1321 4.74C40.9588 4.74 41.6788 4.90667 42.2921 5.24C42.9188 5.57333 43.4188 5.99333 43.7921 6.5V4.92H46.6121V16H43.7921V14.38C43.4321 14.9 42.9321 15.3333 42.2921 15.68C41.6654 16.0133 40.9388 16.18 40.1121 16.18C39.1788 16.18 38.3254 15.94 37.5521 15.46C36.7921 14.98 36.1854 14.3067 35.7321 13.44C35.2921 12.56 35.0721 11.5533 35.0721 10.42ZM43.7921 10.46C43.7921 9.78 43.6588 9.2 43.3921 8.72C43.1254 8.22667 42.7654 7.85333 42.3121 7.6C41.8588 7.33333 41.3721 7.2 40.8521 7.2C40.3321 7.2 39.8521 7.32667 39.4121 7.58C38.9721 7.83333 38.6121 8.20667 38.3321 8.7C38.0654 9.18 37.9321 9.75333 37.9321 10.42C37.9321 11.0867 38.0654 11.6733 38.3321 12.18C38.6121 12.6733 38.9721 13.0533 39.4121 13.32C39.8654 13.5867 40.3454 13.72 40.8521 13.72C41.3721 13.72 41.8588 13.5933 42.3121 13.34C42.7654 13.0733 43.1254 12.7 43.3921 12.22C43.6588 11.7267 43.7921 11.14 43.7921 10.46ZM48.6268 10.46C48.6268 9.31333 48.8601 8.31333 49.3268 7.46C49.7935 6.59333 50.4401 5.92667 51.2668 5.46C52.0935 4.98 53.0401 4.74 54.1068 4.74C55.4801 4.74 56.6135 5.08667 57.5068 5.78C58.4135 6.46 59.0201 7.42 59.3268 8.66H56.3068C56.1468 8.18 55.8735 7.80667 55.4868 7.54C55.1135 7.26 54.6468 7.12 54.0868 7.12C53.2868 7.12 52.6535 7.41333 52.1868 8C51.7201 8.57333 51.4868 9.39333 51.4868 10.46C51.4868 11.5133 51.7201 12.3333 52.1868 12.92C52.6535 13.4933 53.2868 13.78 54.0868 13.78C55.2201 13.78 55.9601 13.2733 56.3068 12.26H59.3268C59.0201 13.46 58.4135 14.4133 57.5068 15.12C56.6001 15.8267 55.4668 16.18 54.1068 16.18C53.0401 16.18 52.0935 15.9467 51.2668 15.48C50.4401 15 49.7935 14.3333 49.3268 13.48C48.8601 12.6133 48.6268 11.6067 48.6268 10.46ZM71.978 4.92L65.118 21.24H62.138L64.538 15.72L60.098 4.92H63.238L66.098 12.66L68.998 4.92H71.978ZM76.2874 13.78H80.8874V16H73.4874V2.04H76.2874V13.78ZM84.0871 3.6C83.5938 3.6 83.1804 3.44667 82.8471 3.14C82.5271 2.82 82.3671 2.42667 82.3671 1.96C82.3671 1.49333 82.5271 1.10667 82.8471 0.799999C83.1804 0.479999 83.5938 0.319999 84.0871 0.319999C84.5804 0.319999 84.9871 0.479999 85.3071 0.799999C85.6404 1.10667 85.8071 1.49333 85.8071 1.96C85.8071 2.42667 85.6404 2.82 85.3071 3.14C84.9871 3.44667 84.5804 3.6 84.0871 3.6ZM85.4671 4.92V16H82.6671V4.92H85.4671ZM94.3735 4.76C95.6935 4.76 96.7602 5.18 97.5735 6.02C98.3868 6.84667 98.7935 8.00667 98.7935 9.5V16H95.9935V9.88C95.9935 9 95.7735 8.32667 95.3335 7.86C94.8935 7.38 94.2935 7.14 93.5335 7.14C92.7602 7.14 92.1468 7.38 91.6935 7.86C91.2535 8.32667 91.0335 9 91.0335 9.88V16H88.2335V4.92H91.0335V6.3C91.4068 5.82 91.8802 5.44667 92.4535 5.18C93.0402 4.9 93.6802 4.76 94.3735 4.76ZM111.756 10.22C111.756 10.62 111.73 10.98 111.676 11.3H103.576C103.643 12.1 103.923 12.7267 104.416 13.18C104.91 13.6333 105.516 13.86 106.236 13.86C107.276 13.86 108.016 13.4133 108.456 12.52H111.476C111.156 13.5867 110.543 14.4667 109.636 15.16C108.73 15.84 107.616 16.18 106.296 16.18C105.23 16.18 104.27 15.9467 103.416 15.48C102.576 15 101.916 14.3267 101.436 13.46C100.97 12.5933 100.736 11.5933 100.736 10.46C100.736 9.31333 100.97 8.30667 101.436 7.44C101.903 6.57333 102.556 5.90667 103.396 5.44C104.236 4.97333 105.203 4.74 106.296 4.74C107.35 4.74 108.29 4.96667 109.116 5.42C109.956 5.87333 110.603 6.52 111.056 7.36C111.523 8.18667 111.756 9.14 111.756 10.22ZM108.856 9.42C108.843 8.7 108.583 8.12667 108.076 7.7C107.57 7.26 106.95 7.04 106.216 7.04C105.523 7.04 104.936 7.25333 104.456 7.68C103.99 8.09333 103.703 8.67333 103.596 9.42H108.856ZM115.04 16.14C114.533 16.14 114.113 15.9867 113.78 15.68C113.46 15.36 113.3 14.9667 113.3 14.5C113.3 14.0333 113.46 13.6467 113.78 13.34C114.113 13.02 114.533 12.86 115.04 12.86C115.533 12.86 115.94 13.02 116.26 13.34C116.58 13.6467 116.74 14.0333 116.74 14.5C116.74 14.9667 116.58 15.36 116.26 15.68C115.94 15.9867 115.533 16.14 115.04 16.14Z" fill="white"/>
</svg>
