<svg xmlns="http://www.w3.org/2000/svg" version="1.1" xmlns:xlink="http://www.w3.org/1999/xlink" xmlns:svgjs="http://svgjs.dev/svgjs" width="1500" height="1500" viewBox="0 0 1500 1500"><rect width="1500" height="1500" fill="#ffffff"></rect><g transform="matrix(0.6666666666666666,0,0,0.6666666666666666,249.39393939393938,638.0441056670451)"><svg viewBox="0 0 396 89" data-background-color="#ffffff" preserveAspectRatio="xMidYMid meet" height="337" width="1500" xmlns="http://www.w3.org/2000/svg" xmlns:xlink="http://www.w3.org/1999/xlink"><g id="tight-bounds" transform="matrix(1,0,0,1,0.2400000000000091,-0.1495196040074518)"><svg viewBox="0 0 395.52 89.2990392080149" height="89.2990392080149" width="395.52"><g><svg viewBox="0 0 483.2553314283882 109.10759705882353" height="89.2990392080149" width="395.52"><g><svg viewBox="0 0 395.52 109.10759705882353" height="109.10759705882353" width="395.52"><g id="textblocktransform"><svg viewBox="0 0 395.52 109.10759705882353" height="109.10759705882353" width="395.52" id="textblock"><g><svg viewBox="0 0 395.52 109.10759705882353" height="109.10759705882353" width="395.52"><rect width="395.52" height="109.10759705882353" x="0" y="0" opacity="1" fill="#ffffff" data-fill-palette-color="tertiary"></rect><g transform="matrix(1,0,0,1,23.607599999999998,23.6076)"><svg width="348.3048" viewBox="3.9 -35.5 203.98 36.25" height="61.892397058823526" data-palette-color="#07936e"><path d="M26.3 0L21.35-29.95 16.4 0 12.15 0 3.9-35 6.9-35 14.05-3.45 19.4-35 23.3-35 28.65-3.45 35.7-35 38.7-35 30.55 0 26.3 0ZM45.15-32.15Q44.5-32.15 43.97-32.68 43.45-33.2 43.45-33.85L43.45-33.85Q43.45-34.5 43.95-35 44.45-35.5 45.15-35.5L45.15-35.5Q45.85-35.5 46.32-35.02 46.8-34.55 46.8-33.85L46.8-33.85Q46.8-33.15 46.3-32.65 45.8-32.15 45.15-32.15L45.15-32.15ZM43.7 0L43.7-25.05 46.5-25.05 46.5 0 43.7 0ZM55.25-6.35Q55.55-4.1 57.5-2.98 59.45-1.85 61.85-1.85L61.85-1.85Q64.1-1.85 65.95-2.88 67.8-3.9 67.8-6.2L67.8-6.2Q67.8-7.7 66.92-8.68 66.05-9.65 64.75-10.25 63.45-10.85 61.25-11.55L61.25-11.55Q58.8-12.35 57.25-13.05 55.7-13.75 54.55-15.03 53.4-16.3 53.2-18.25L53.2-18.25 53.15-18.85Q53.15-20.5 54.07-22.08 55-23.65 56.92-24.65 58.85-25.65 61.75-25.65L61.75-25.65Q63.35-25.65 64.57-25.33 65.8-25 66.5-24.65 67.2-24.3 67.35-24.2L67.35-24.2 66.4-21.9Q66.25-22 65.67-22.3 65.1-22.6 64.05-22.9 63-23.2 61.75-23.2L61.75-23.2Q59.35-23.2 57.65-22.08 55.95-20.95 55.95-18.95L55.95-18.95Q55.95-17.05 57.5-16.05 59.05-15.05 62.25-14.05L62.25-14.05Q64.95-13.15 66.6-12.35 68.25-11.55 69.42-10.08 70.6-8.6 70.6-6.25L70.6-6.25Q70.6-3.25 68.37-1.25 66.15 0.75 61.85 0.75L61.85 0.75Q59 0.75 56.92-0.23 54.85-1.2 53.77-2.8 52.7-4.4 52.6-6.35L52.6-6.35 55.25-6.35ZM90.84-1.75Q89.04-0.6 86.74 0 84.44 0.6 82.14 0.6L82.14 0.6Q78.44 0.6 76.27-1.23 74.09-3.05 74.09-6.7L74.09-6.7 74.09-16.95Q74.09-21 76.62-23.25 79.14-25.5 83.29-25.5L83.29-25.5Q87.44-25.5 89.77-23.28 92.09-21.05 92.09-17.1L92.09-17.1 92.09-10.6 76.89-9.75 76.89-6.7Q76.89-4.3 78.44-3.1 79.99-1.9 82.49-1.9L82.49-1.9Q85.99-1.9 89.74-3.9L89.74-3.9 90.84-1.75ZM89.29-17.45Q89.29-20.55 87.34-21.83 85.39-23.1 83.24-23.1L83.24-23.1Q80.49-23.1 78.69-21.6 76.89-20.1 76.89-16.9L76.89-16.9 76.89-12.5 89.29-13.1 89.29-17.45ZM120.34 0L115.39-29.95 110.44 0 106.19 0 97.94-35 100.94-35 108.09-3.45 113.44-35 117.34-35 122.69-3.45 129.74-35 132.74-35 124.59 0 120.34 0ZM151.99 0Q146.59 0.55 144.19 0.55L144.19 0.55Q138.94 0.55 135.84-1.4 132.74-3.35 132.74-8.45L132.74-8.45 132.74-12.6Q132.74-17.55 136.19-19.25L136.19-19.25Q137.84-20.1 140.39-20.1L140.39-20.1Q142.74-20.1 145.14-19.33 147.54-18.55 149.19-17.3L149.19-17.3Q149.19-20.05 147.59-21.68 145.99-23.3 141.44-23.3L141.44-23.3 141.59-25.45Q146.39-25.45 148.66-23.93 150.94-22.4 151.46-20.3 151.99-18.2 151.99-14.9L151.99-14.9 151.99 0ZM149.19-15.15Q147.14-16.1 144.81-16.8 142.49-17.5 140.54-17.5L140.54-17.5Q135.49-17.5 135.49-12.45L135.49-12.45 135.49-8.1Q135.49-4.85 137.74-3.38 139.99-1.9 144.14-1.9L144.14-1.9Q146.29-1.9 149.19-2.3L149.19-2.3 149.19-15.15ZM157.69 0L157.69-35 160.49-35 160.49 0 157.69 0ZM168.38 0L168.38-35 171.18-35 171.18 0 168.38 0ZM193.68-1.75Q191.88-0.6 189.58 0 187.28 0.6 184.98 0.6L184.98 0.6Q181.28 0.6 179.11-1.23 176.93-3.05 176.93-6.7L176.93-6.7 176.93-16.95Q176.93-21 179.46-23.25 181.98-25.5 186.13-25.5L186.13-25.5Q190.28-25.5 192.61-23.28 194.93-21.05 194.93-17.1L194.93-17.1 194.93-10.6 179.73-9.75 179.73-6.7Q179.73-4.3 181.28-3.1 182.83-1.9 185.33-1.9L185.33-1.9Q188.83-1.9 192.58-3.9L192.58-3.9 193.68-1.75ZM192.13-17.45Q192.13-20.55 190.18-21.83 188.23-23.1 186.08-23.1L186.08-23.1Q183.33-23.1 181.53-21.6 179.73-20.1 179.73-16.9L179.73-16.9 179.73-12.5 192.13-13.1 192.13-17.45ZM204.38 0.65Q201.58-0.15 200.33-1.9 199.08-3.65 199.08-6.6L199.08-6.6 199.08-35 201.88-35 201.88-25.05 207.88-25.05 206.68-22.4 201.88-22.4 201.88-6.6Q201.88-2.6 205.18-1.5L205.18-1.5 204.38 0.65Z" opacity="1" transform="matrix(1,0,0,1,0,0)" fill="#07936e" class="wordmark-text-0" data-fill-palette-color="quaternary" id="text-0"></path></svg></g></svg></g></svg></g></svg></g><g transform="matrix(1,0,0,1,407.3238,16.857123745588233)"><svg viewBox="0 0 75.93153142838824 75.39334956764706" height="75.39334956764706" width="75.93153142838824"><g><svg xmlns="http://www.w3.org/2000/svg" xmlns:xlink="http://www.w3.org/1999/xlink" version="1.1" x="0" y="0" viewBox="0 0.817 99.89099999999999 99.183" enable-background="new 0 0 100 100" xml:space="preserve" height="75.39334956764706" width="75.93153142838824" class="icon-icon-0" data-fill-palette-color="accent" id="icon-0"><g fill="#ffc604" data-fill-palette-color="accent"><rect x="6.6" y="85.371" width="1.013" height="3.037" fill="#ffc604" data-fill-palette-color="accent"></rect><rect x="6.6" y="80.825" width="1.013" height="3.037" fill="#ffc604" data-fill-palette-color="accent"></rect><rect x="6.6" y="76.278" width="1.013" height="3.037" fill="#ffc604" data-fill-palette-color="accent"></rect><rect x="6.6" y="71.732" width="1.013" height="3.038" fill="#ffc604" data-fill-palette-color="accent"></rect><rect x="6.6" y="67.186" width="1.013" height="3.038" fill="#ffc604" data-fill-palette-color="accent"></rect><rect x="6.6" y="62.64" width="1.013" height="3.037" fill="#ffc604" data-fill-palette-color="accent"></rect><rect x="6.6" y="58.093" width="1.013" height="3.038" fill="#ffc604" data-fill-palette-color="accent"></rect><rect x="6.6" y="53.546" width="1.013" height="3.039" fill="#ffc604" data-fill-palette-color="accent"></rect><path d="M91.118 49.087h-1.367v1.012h1.367c0.278 0 0.506 0.228 0.506 0.506v1.448h1.013v-1.448C92.637 49.768 91.956 49.087 91.118 49.087z" fill="#ffc604" data-fill-palette-color="accent"></path><path d="M6.607 50.605v1.448h1.013v-1.448c0-0.279 0.227-0.506 0.506-0.506h1.368v-1.012H8.126C7.289 49.087 6.607 49.768 6.607 50.605z" fill="#ffc604" data-fill-palette-color="accent"></path><rect x="85.24" y="49.087" width="3.036" height="1.012" fill="#ffc604" data-fill-palette-color="accent"></rect><rect x="80.626" y="49.087" width="3.037" height="1.012" fill="#ffc604" data-fill-palette-color="accent"></rect><rect x="75.663" y="49.087" width="3.036" height="1.012" fill="#ffc604" data-fill-palette-color="accent"></rect><rect x="70.698" y="49.087" width="3.037" height="1.012" fill="#ffc604" data-fill-palette-color="accent"></rect><rect x="65.734" y="49.087" width="3.038" height="1.012" fill="#ffc604" data-fill-palette-color="accent"></rect><rect x="60.771" y="49.087" width="3.037" height="1.012" fill="#ffc604" data-fill-palette-color="accent"></rect><rect x="55.808" y="49.087" width="3.036" height="1.012" fill="#ffc604" data-fill-palette-color="accent"></rect><rect x="50.844" y="49.087" width="3.036" height="1.012" fill="#ffc604" data-fill-palette-color="accent"></rect><rect x="45.88" y="49.087" width="3.037" height="1.012" fill="#ffc604" data-fill-palette-color="accent"></rect><rect x="40.916" y="49.087" width="3.038" height="1.012" fill="#ffc604" data-fill-palette-color="accent"></rect><rect x="35.953" y="49.087" width="3.037" height="1.012" fill="#ffc604" data-fill-palette-color="accent"></rect><rect x="30.988" y="49.087" width="3.038" height="1.012" fill="#ffc604" data-fill-palette-color="accent"></rect><rect x="26.025" y="49.087" width="3.037" height="1.012" fill="#ffc604" data-fill-palette-color="accent"></rect><rect x="21.061" y="49.087" width="3.038" height="1.012" fill="#ffc604" data-fill-palette-color="accent"></rect><rect x="16.097" y="49.087" width="3.037" height="1.012" fill="#ffc604" data-fill-palette-color="accent"></rect><rect x="11.133" y="49.087" width="3.038" height="1.012" fill="#ffc604" data-fill-palette-color="accent"></rect><path d="M7.621 91.313v-1.447H6.607v1.447c0 0.837 0.682 1.52 1.519 1.52h1.368V91.82H8.126C7.848 91.82 7.621 91.593 7.621 91.313z" fill="#ffc604" data-fill-palette-color="accent"></path><rect x="91.624" y="53.511" width="1.013" height="3.037" fill="#ffc604" data-fill-palette-color="accent"></rect><rect x="91.624" y="58.057" width="1.013" height="3.036" fill="#ffc604" data-fill-palette-color="accent"></rect><rect x="91.624" y="62.604" width="1.013" height="3.037" fill="#ffc604" data-fill-palette-color="accent"></rect><rect x="91.624" y="67.149" width="1.013" height="3.037" fill="#ffc604" data-fill-palette-color="accent"></rect><rect x="91.624" y="71.696" width="1.013" height="3.037" fill="#ffc604" data-fill-palette-color="accent"></rect><rect x="91.624" y="76.242" width="1.013" height="3.037" fill="#ffc604" data-fill-palette-color="accent"></rect><rect x="91.624" y="80.789" width="1.013" height="3.037" fill="#ffc604" data-fill-palette-color="accent"></rect><rect x="91.624" y="85.336" width="1.013" height="3.036" fill="#ffc604" data-fill-palette-color="accent"></rect><path d="M91.616 91.313c0 0.279-0.228 0.507-0.506 0.507h-1.367v1.013h1.367c0.838 0 1.519-0.683 1.519-1.52v-1.447h-1.013V91.313z" fill="#ffc604" data-fill-palette-color="accent"></path><rect x="10.96" y="91.82" width="3.037" height="1.013" fill="#ffc604" data-fill-palette-color="accent"></rect><rect x="15.925" y="91.82" width="3.037" height="1.013" fill="#ffc604" data-fill-palette-color="accent"></rect><rect x="20.888" y="91.82" width="3.037" height="1.013" fill="#ffc604" data-fill-palette-color="accent"></rect><rect x="25.852" y="91.82" width="3.037" height="1.013" fill="#ffc604" data-fill-palette-color="accent"></rect><rect x="30.815" y="91.82" width="3.037" height="1.013" fill="#ffc604" data-fill-palette-color="accent"></rect><rect x="35.779" y="91.82" width="3.037" height="1.013" fill="#ffc604" data-fill-palette-color="accent"></rect><rect x="40.744" y="91.82" width="3.037" height="1.013" fill="#ffc604" data-fill-palette-color="accent"></rect><rect x="45.707" y="91.82" width="3.037" height="1.013" fill="#ffc604" data-fill-palette-color="accent"></rect><rect x="50.671" y="91.82" width="3.037" height="1.013" fill="#ffc604" data-fill-palette-color="accent"></rect><rect x="55.635" y="91.82" width="3.036" height="1.013" fill="#ffc604" data-fill-palette-color="accent"></rect><rect x="60.599" y="91.82" width="3.037" height="1.013" fill="#ffc604" data-fill-palette-color="accent"></rect><rect x="65.561" y="91.82" width="3.038" height="1.013" fill="#ffc604" data-fill-palette-color="accent"></rect><rect x="70.525" y="91.82" width="3.037" height="1.013" fill="#ffc604" data-fill-palette-color="accent"></rect><rect x="75.489" y="91.82" width="3.038" height="1.013" fill="#ffc604" data-fill-palette-color="accent"></rect><rect x="80.453" y="91.82" width="3.036" height="1.013" fill="#ffc604" data-fill-palette-color="accent"></rect><rect x="85.066" y="91.82" width="3.037" height="1.013" fill="#ffc604" data-fill-palette-color="accent"></rect></g><g fill="#ffc604" data-fill-palette-color="accent"><path d="M94.83 41.912h-2.654l0.001-0.006h-3.083l-0.001 0.006H68.754c0.001-0.002 0.002-0.004 0.002-0.006H51.84c0.007 0.001 0.012 0.004 0.019 0.006h-4.829c-0.002-0.002-0.003-0.004-0.005-0.006H34.421c0.001 0.002 0.001 0.004 0.002 0.006H10.724l0.001-0.006H7.639l-0.001 0.006H5.062C2.278 41.912 0 44.189 0 46.974v47.964C0 97.722 2.278 100 5.062 100H94.83c2.782 0 5.061-2.278 5.061-5.063V46.974C99.891 44.189 97.612 41.912 94.83 41.912zM96.854 94.938c0 1.098-0.928 2.025-2.023 2.025H5.062c-1.097 0-2.025-0.928-2.025-2.025V46.974c0-1.098 0.928-2.025 2.025-2.025H94.83c1.096 0 2.023 0.927 2.023 2.025V94.938z" fill="#ffc604" data-fill-palette-color="accent"></path></g><path d="M10.99 40.406l6.45-36.551 76.002 13.401-4.083 23.15h3.083l3.989-22.622c0.292-1.645-0.816-3.229-2.462-3.519L17.958 0.863c-0.176-0.031-0.352-0.046-0.525-0.046-1.444 0-2.734 1.041-2.993 2.51l-6.535 37.08H10.99z" fill="#ffc604" data-fill-palette-color="accent"></path><path d="M70.08 37.614c1.798-10.212-5.019-19.947-15.232-21.745C44.63 14.063 34.896 20.88 33.095 31.089c-0.571 3.238-0.256 6.417 0.744 9.317h12.139c-0.757-1.336-1.12-2.951-1.044-4.828l-1.753-0.309 0.3-1.697 1.594 0.281 0.047-0.27c0.063-0.356 0.145-0.702 0.236-1.073l-1.639-0.289 0.299-1.697 1.871 0.33c0.681-1.837 1.764-3.313 3.138-4.275 1.744-1.297 3.8-1.766 6.03-1.375 1.84 0.324 3.081 1.133 3.657 1.586l0.098 0.077-1.026 2.028-0.147-0.123c-0.744-0.625-1.836-1.112-2.923-1.303-1.442-0.255-2.762 0.029-3.87 0.828-0.875 0.636-1.62 1.688-2.161 3.049l7.768 1.37-0.299 1.697-8.071-1.424c-0.093 0.312-0.154 0.656-0.218 1.019l-0.057 0.326 8.108 1.43-0.299 1.698-7.89-1.392c-0.033 1.496 0.261 2.73 0.873 3.67 0.156 0.243 0.34 0.458 0.534 0.665H69.34C69.652 39.508 69.909 38.581 70.08 37.614z" fill="#ffc604" data-fill-palette-color="accent"></path></svg></g></svg></g></svg></g><defs></defs></svg><rect width="395.52" height="89.2990392080149" fill="none" stroke="none" visibility="hidden"></rect></g></svg></g></svg>